<svg xmlns="http://www.w3.org/2000/svg" xmlns:xlink="http://www.w3.org/1999/xlink" width="220" zoomAndPan="magnify" viewBox="0 0 165 37.5" height="50" preserveAspectRatio="xMidYMid meet" version="1.0"><defs><clipPath id="id1"><path d="M 1.085938 0 L 163.914062 0 L 163.914062 37.007812 L 1.085938 37.007812 Z M 1.085938 0 " clip-rule="nonzero"/></clipPath><clipPath id="id2"><path d="M 40.722656 12.605469 L 52.039062 12.605469 L 52.039062 24.398438 L 40.722656 24.398438 Z M 40.722656 12.605469 " clip-rule="nonzero"/></clipPath><clipPath id="id3"><path d="M 56.722656 12.605469 L 59.148438 12.605469 L 59.148438 24.398438 L 56.722656 24.398438 Z M 56.722656 12.605469 " clip-rule="nonzero"/></clipPath><clipPath id="id4"><path d="M 64.453125 12.605469 L 74.667969 12.605469 L 74.667969 24.398438 L 64.453125 24.398438 Z M 64.453125 12.605469 " clip-rule="nonzero"/></clipPath><clipPath id="id5"><path d="M 77.863281 12.605469 L 89.601562 12.605469 L 89.601562 24.398438 L 77.863281 24.398438 Z M 77.863281 12.605469 " clip-rule="nonzero"/></clipPath><clipPath id="id6"><path d="M 93.101562 12.464844 L 106.929688 12.464844 L 106.929688 24.539062 L 93.101562 24.539062 Z M 93.101562 12.464844 " clip-rule="nonzero"/></clipPath><clipPath id="id7"><path d="M 93.101562 19 L 99 19 L 99 24.539062 L 93.101562 24.539062 Z M 93.101562 19 " clip-rule="nonzero"/></clipPath><clipPath id="id8"><path d="M 101 12.464844 L 106 12.464844 L 106 17 L 101 17 Z M 101 12.464844 " clip-rule="nonzero"/></clipPath><clipPath id="id9"><path d="M 109.378906 12.605469 L 121.117188 12.605469 L 121.117188 24.398438 L 109.378906 24.398438 Z M 109.378906 12.605469 " clip-rule="nonzero"/></clipPath><clipPath id="id10"><path d="M 126.429688 12.601562 L 137.800781 12.601562 L 137.800781 24.394531 L 126.429688 24.394531 Z M 126.429688 12.601562 " clip-rule="nonzero"/></clipPath><clipPath id="id11"><path d="M 140.375 12 L 154 12 L 154 24.195312 L 140.375 24.195312 Z M 140.375 12 " clip-rule="nonzero"/></clipPath><clipPath id="id12"><path d="M 153 6.050781 L 159.589844 6.050781 L 159.589844 12 L 153 12 Z M 153 6.050781 " clip-rule="nonzero"/></clipPath><clipPath id="id13"><path d="M 153 6.050781 L 159.589844 6.050781 L 159.589844 13 L 153 13 Z M 153 6.050781 " clip-rule="nonzero"/></clipPath><clipPath id="id14"><path d="M 5.402344 6.050781 L 29.902344 6.050781 L 29.902344 30.945312 L 5.402344 30.945312 Z M 5.402344 6.050781 " clip-rule="nonzero"/></clipPath></defs><g clip-path="url(#id1)"><path fill="#ffffff" d="M 1.085938 0 L 163.914062 0 L 163.914062 44.40625 L 1.085938 44.40625 Z M 1.085938 0 " fill-opacity="1" fill-rule="nonzero"/><path fill="#ffffff" d="M 1.085938 0 L 163.914062 0 L 163.914062 37.007812 L 1.085938 37.007812 Z M 1.085938 0 " fill-opacity="1" fill-rule="nonzero"/><path fill="#ffffff" d="M 1.085938 0 L 163.914062 0 L 163.914062 37.007812 L 1.085938 37.007812 Z M 1.085938 0 " fill-opacity="1" fill-rule="nonzero"/><path fill="#ffffff" d="M 1.085938 0 L 163.914062 0 L 163.914062 37.007812 L 1.085938 37.007812 Z M 1.085938 0 " fill-opacity="1" fill-rule="nonzero"/></g><g clip-path="url(#id2)"><path fill="#000000" d="M 48.617188 19.277344 L 43.101562 19.277344 L 43.101562 22.28125 L 48.617188 22.28125 C 49.078125 22.28125 49.386719 22.203125 49.546875 22.046875 C 49.707031 21.890625 49.789062 21.613281 49.789062 21.21875 L 49.789062 20.328125 C 49.789062 19.933594 49.707031 19.660156 49.546875 19.507812 C 49.386719 19.355469 49.074219 19.277344 48.617188 19.277344 M 48.617188 14.523438 L 43.101562 14.523438 L 43.101562 17.335938 L 48.617188 17.335938 C 49.035156 17.335938 49.328125 17.273438 49.488281 17.144531 C 49.648438 17.019531 49.730469 16.800781 49.730469 16.488281 L 49.730469 15.371094 C 49.730469 15.066406 49.648438 14.847656 49.488281 14.71875 C 49.328125 14.589844 49.035156 14.523438 48.617188 14.523438 M 40.722656 24.398438 L 40.722656 12.605469 L 49.628906 12.605469 C 50.449219 12.605469 51.042969 12.785156 51.410156 13.152344 C 51.777344 13.515625 51.960938 14.097656 51.960938 14.890625 L 51.960938 16.332031 C 51.960938 16.898438 51.804688 17.347656 51.5 17.6875 C 51.191406 18.027344 50.746094 18.238281 50.171875 18.316406 C 50.765625 18.40625 51.226562 18.648438 51.550781 19.042969 C 51.875 19.4375 52.039062 19.949219 52.039062 20.582031 L 52.039062 22.089844 C 52.039062 22.871094 51.785156 23.449219 51.28125 23.832031 C 50.777344 24.210938 50.011719 24.398438 48.980469 24.398438 Z M 40.722656 24.398438 " fill-opacity="1" fill-rule="nonzero"/></g><g clip-path="url(#id3)"><path fill="#000000" d="M 56.722656 12.605469 L 59.148438 12.605469 L 59.148438 24.398438 L 56.722656 24.398438 Z M 56.722656 12.605469 " fill-opacity="1" fill-rule="nonzero"/></g><g clip-path="url(#id4)"><path fill="#000000" d="M 64.453125 24.398438 L 64.453125 12.605469 L 66.871094 12.605469 L 66.871094 22.179688 L 74.667969 22.179688 L 74.667969 24.398438 Z M 64.453125 24.398438 " fill-opacity="1" fill-rule="nonzero"/></g><g clip-path="url(#id5)"><path fill="#000000" d="M 87.191406 12.605469 L 87.191406 21.617188 C 87.191406 21.925781 86.9375 22.179688 86.628906 22.179688 L 80.851562 22.179688 C 80.539062 22.179688 80.289062 21.925781 80.289062 21.617188 L 80.289062 12.605469 L 77.863281 12.605469 L 77.863281 21.609375 C 77.863281 22.6875 78.042969 23.421875 78.402344 23.8125 C 78.757812 24.203125 79.441406 24.398438 80.445312 24.398438 L 87.023438 24.398438 C 88.035156 24.398438 88.71875 24.203125 89.070312 23.8125 C 89.425781 23.421875 89.601562 22.6875 89.601562 21.609375 L 89.601562 12.605469 Z M 87.191406 12.605469 " fill-opacity="1" fill-rule="nonzero"/></g><g clip-path="url(#id6)"><path fill="#000000" d="M 101.378906 18.253906 L 99.804688 16.574219 L 99.273438 16.007812 L 99.273438 16.003906 L 97.039062 13.316406 C 96.667969 12.867188 96.109375 12.605469 95.523438 12.605469 L 93.242188 12.605469 L 98.257812 18.339844 L 99.695312 19.824219 L 100.175781 20.402344 L 100.3125 20.546875 L 100.304688 20.554688 L 102.910156 23.691406 C 103.285156 24.140625 103.839844 24.398438 104.425781 24.398438 L 106.789062 24.398438 Z M 101.378906 18.253906 " fill-opacity="1" fill-rule="nonzero"/></g><g clip-path="url(#id7)"><path fill="#f4c500" d="M 93.332031 24.398438 L 95.210938 24.398438 C 95.824219 24.398438 96.402344 24.113281 96.777344 23.628906 L 98.414062 21.492188 L 96.957031 19.941406 Z M 93.332031 24.398438 " fill-opacity="1" fill-rule="nonzero"/></g><g clip-path="url(#id8)"><path fill="#f4c500" d="M 105.714844 12.605469 L 103.886719 12.605469 C 103.285156 12.605469 102.714844 12.882812 102.339844 13.355469 L 101.074219 14.960938 L 102.488281 16.464844 Z M 105.714844 12.605469 " fill-opacity="1" fill-rule="nonzero"/></g><path fill="#000000" d="M 100.175781 20.402344 L 100.304688 20.554688 L 100.3125 20.546875 Z M 100.175781 20.402344 " fill-opacity="1" fill-rule="nonzero"/><g clip-path="url(#id9)"><path fill="#000000" d="M 118.703125 12.605469 L 118.703125 21.617188 C 118.703125 21.925781 118.453125 22.179688 118.140625 22.179688 L 112.363281 22.179688 C 112.054688 22.179688 111.800781 21.925781 111.800781 21.617188 L 111.800781 12.605469 L 109.378906 12.605469 L 109.378906 21.609375 C 109.378906 22.6875 109.558594 23.421875 109.914062 23.8125 C 110.273438 24.203125 110.953125 24.398438 111.957031 24.398438 L 118.535156 24.398438 C 119.546875 24.398438 120.230469 24.203125 120.585938 23.8125 C 120.941406 23.421875 121.117188 22.6875 121.117188 21.609375 L 121.117188 12.605469 Z M 118.703125 12.605469 " fill-opacity="1" fill-rule="nonzero"/></g><g clip-path="url(#id10)"><path fill="#000000" d="M 128.808594 17.921875 L 128.808594 14.640625 L 134.242188 14.640625 C 134.660156 14.640625 134.949219 14.710938 135.101562 14.847656 C 135.253906 14.988281 135.332031 15.226562 135.332031 15.566406 L 135.332031 16.984375 C 135.332031 17.335938 135.253906 17.578125 135.101562 17.714844 C 134.949219 17.851562 134.660156 17.921875 134.242188 17.921875 Z M 137.796875 24.390625 L 137.257812 23 L 136.058594 19.941406 L 136.035156 19.875 C 136.492188 19.796875 136.855469 19.640625 137.105469 19.394531 C 137.476562 19.03125 137.660156 18.449219 137.660156 17.652344 L 137.660156 14.886719 C 137.660156 14.085938 137.476562 13.503906 137.105469 13.140625 C 136.734375 12.78125 136.136719 12.601562 135.3125 12.601562 L 126.429688 12.601562 L 126.429688 24.390625 L 128.808594 24.390625 L 128.808594 19.941406 L 133.546875 19.941406 L 135.238281 24.34375 L 135.257812 24.390625 L 137.800781 24.398438 Z M 137.796875 24.390625 " fill-opacity="1" fill-rule="nonzero"/></g><g clip-path="url(#id11)"><path fill="#000000" d="M 145.917969 24.054688 L 145.917969 18.773438 L 140.515625 12.253906 L 143.742188 12.253906 L 147.3125 16.789062 L 150.894531 12.253906 L 153.734375 12.253906 L 148.355469 18.707031 L 148.355469 24.054688 Z M 145.917969 24.054688 " fill-opacity="1" fill-rule="nonzero"/></g><path fill="#000000" d="M 155.664062 10.59375 L 155.664062 9.226562 L 156.164062 9.226562 C 156.308594 9.226562 156.421875 9.242188 156.5 9.273438 C 156.582031 9.300781 156.664062 9.359375 156.75 9.445312 C 156.835938 9.535156 156.964844 9.703125 157.132812 9.953125 L 157.566406 10.59375 L 158.113281 10.59375 L 157.542969 9.753906 C 157.441406 9.613281 157.332031 9.480469 157.203125 9.363281 C 157.136719 9.304688 157.046875 9.25 156.925781 9.191406 C 157.222656 9.152344 157.449219 9.0625 157.605469 8.917969 C 157.765625 8.773438 157.84375 8.585938 157.84375 8.355469 C 157.84375 8.175781 157.796875 8.019531 157.703125 7.886719 C 157.613281 7.753906 157.492188 7.660156 157.351562 7.601562 C 157.207031 7.542969 156.984375 7.515625 156.679688 7.515625 L 155.234375 7.515625 L 155.234375 10.59375 Z M 155.664062 7.855469 L 156.695312 7.855469 C 156.929688 7.855469 157.101562 7.898438 157.21875 7.988281 C 157.339844 8.078125 157.398438 8.199219 157.398438 8.355469 C 157.398438 8.464844 157.367188 8.558594 157.304688 8.636719 C 157.242188 8.71875 157.160156 8.777344 157.054688 8.816406 C 156.949219 8.855469 156.796875 8.875 156.59375 8.875 L 155.664062 8.875 Z M 155.664062 7.855469 " fill-opacity="1" fill-rule="nonzero"/><path fill="#000000" d="M 155.664062 10.59375 L 155.730469 10.59375 L 155.730469 9.292969 L 156.164062 9.292969 C 156.304688 9.292969 156.410156 9.308594 156.476562 9.332031 C 156.546875 9.359375 156.625 9.410156 156.703125 9.492188 C 156.785156 9.574219 156.910156 9.742188 157.078125 9.988281 L 157.535156 10.660156 L 158.234375 10.660156 L 157.59375 9.71875 C 157.496094 9.570312 157.378906 9.4375 157.246094 9.316406 C 157.175781 9.25 157.078125 9.191406 156.953125 9.132812 L 156.925781 9.191406 L 156.933594 9.257812 C 157.238281 9.21875 157.480469 9.121094 157.652344 8.964844 C 157.820312 8.808594 157.910156 8.601562 157.90625 8.355469 C 157.90625 8.164062 157.859375 7.996094 157.757812 7.851562 C 157.660156 7.707031 157.53125 7.601562 157.375 7.539062 C 157.214844 7.476562 156.988281 7.449219 156.679688 7.449219 L 155.167969 7.449219 L 155.167969 10.660156 L 155.730469 10.660156 L 155.730469 10.59375 L 155.664062 10.59375 L 155.664062 10.527344 L 155.300781 10.527344 L 155.300781 7.582031 L 156.679688 7.582031 C 156.976562 7.582031 157.195312 7.609375 157.324219 7.664062 C 157.457031 7.714844 157.5625 7.800781 157.648438 7.925781 C 157.734375 8.046875 157.777344 8.1875 157.777344 8.355469 C 157.777344 8.570312 157.707031 8.738281 157.5625 8.867188 C 157.417969 9 157.207031 9.089844 156.914062 9.128906 L 156.691406 9.15625 L 156.898438 9.253906 C 157.015625 9.304688 157.101562 9.359375 157.15625 9.410156 C 157.28125 9.527344 157.390625 9.652344 157.488281 9.792969 L 157.988281 10.527344 L 157.601562 10.527344 L 157.1875 9.917969 C 157.015625 9.664062 156.890625 9.496094 156.796875 9.402344 C 156.707031 9.308594 156.617188 9.246094 156.523438 9.210938 C 156.433594 9.175781 156.3125 9.160156 156.164062 9.160156 L 155.597656 9.160156 L 155.597656 10.59375 L 155.664062 10.59375 L 155.664062 10.527344 Z M 155.664062 7.855469 L 155.664062 7.921875 L 156.695312 7.921875 C 156.921875 7.921875 157.082031 7.964844 157.179688 8.042969 C 157.28125 8.121094 157.332031 8.214844 157.332031 8.355469 C 157.332031 8.449219 157.304688 8.527344 157.253906 8.597656 C 157.199219 8.667969 157.128906 8.722656 157.03125 8.753906 C 156.941406 8.789062 156.792969 8.808594 156.59375 8.808594 L 155.730469 8.808594 L 155.730469 7.855469 L 155.664062 7.855469 L 155.664062 7.921875 L 155.664062 7.855469 L 155.597656 7.855469 L 155.597656 8.9375 L 156.59375 8.9375 C 156.800781 8.9375 156.960938 8.921875 157.078125 8.878906 C 157.191406 8.835938 157.289062 8.769531 157.355469 8.679688 C 157.425781 8.585938 157.464844 8.476562 157.460938 8.355469 C 157.464844 8.183594 157.394531 8.035156 157.261719 7.9375 C 157.125 7.835938 156.9375 7.789062 156.695312 7.789062 L 155.597656 7.789062 L 155.597656 7.855469 Z M 155.664062 7.855469 " fill-opacity="1" fill-rule="nonzero"/><g clip-path="url(#id12)"><path fill="#000000" d="M 156.460938 11.574219 C 155.089844 11.574219 153.980469 10.484375 153.980469 9.140625 C 153.980469 7.796875 155.089844 6.707031 156.460938 6.707031 C 157.832031 6.707031 158.945312 7.796875 158.945312 9.140625 C 158.945312 10.484375 157.832031 11.574219 156.460938 11.574219 M 156.460938 6.257812 C 154.847656 6.257812 153.539062 7.542969 153.539062 9.125 C 153.539062 10.707031 154.847656 11.992188 156.460938 11.992188 C 158.074219 11.992188 159.386719 10.707031 159.386719 9.125 C 159.386719 7.542969 158.078125 6.257812 156.460938 6.257812 " fill-opacity="1" fill-rule="nonzero"/></g><g clip-path="url(#id13)"><path fill="#000000" d="M 156.460938 11.574219 L 156.460938 11.507812 C 155.792969 11.507812 155.191406 11.246094 154.753906 10.816406 C 154.316406 10.386719 154.046875 9.796875 154.046875 9.140625 C 154.046875 8.488281 154.316406 7.894531 154.753906 7.464844 C 155.191406 7.039062 155.792969 6.773438 156.460938 6.773438 C 157.128906 6.773438 157.734375 7.039062 158.171875 7.464844 C 158.609375 7.894531 158.878906 8.488281 158.878906 9.140625 C 158.878906 9.796875 158.609375 10.386719 158.171875 10.816406 C 157.734375 11.246094 157.128906 11.507812 156.460938 11.507812 L 156.460938 11.640625 C 157.164062 11.640625 157.800781 11.363281 158.261719 10.910156 C 158.722656 10.457031 159.007812 9.832031 159.007812 9.140625 C 159.007812 8.449219 158.722656 7.824219 158.261719 7.371094 C 157.800781 6.921875 157.164062 6.640625 156.460938 6.640625 C 155.757812 6.640625 155.121094 6.921875 154.660156 7.371094 C 154.199219 7.824219 153.914062 8.449219 153.914062 9.140625 C 153.914062 9.832031 154.199219 10.457031 154.660156 10.910156 C 155.121094 11.363281 155.757812 11.640625 156.460938 11.640625 Z M 156.460938 6.257812 L 156.460938 6.195312 C 155.636719 6.195312 154.890625 6.519531 154.351562 7.050781 C 153.808594 7.582031 153.472656 8.316406 153.472656 9.125 C 153.472656 9.933594 153.808594 10.667969 154.351562 11.199219 C 154.890625 11.730469 155.636719 12.058594 156.460938 12.058594 C 157.285156 12.058594 158.035156 11.730469 158.574219 11.199219 C 159.117188 10.667969 159.449219 9.933594 159.449219 9.125 C 159.449219 8.316406 159.117188 7.582031 158.574219 7.050781 C 158.035156 6.519531 157.285156 6.195312 156.460938 6.195312 L 156.460938 6.324219 C 157.25 6.324219 157.964844 6.636719 158.484375 7.144531 C 159 7.652344 159.320312 8.351562 159.320312 9.125 C 159.320312 9.898438 159 10.597656 158.484375 11.105469 C 157.964844 11.613281 157.25 11.925781 156.460938 11.925781 C 155.671875 11.925781 154.957031 11.613281 154.441406 11.105469 C 153.925781 10.597656 153.605469 9.898438 153.605469 9.125 C 153.605469 8.351562 153.925781 7.652344 154.441406 7.144531 C 154.957031 6.636719 155.671875 6.324219 156.460938 6.324219 Z M 156.460938 6.257812 " fill-opacity="1" fill-rule="nonzero"/></g><g clip-path="url(#id14)"><path fill="#000000" d="M 7.257812 18.546875 C 7.238281 24.332031 11.828125 29.015625 17.550781 29.054688 C 23.304688 29.089844 27.992188 24.425781 28.035156 18.617188 C 28.078125 12.871094 23.425781 8.105469 17.75 8.082031 C 11.894531 8.054688 7.28125 12.660156 7.257812 18.546875 M 17.652344 6.558594 C 24.175781 6.511719 29.535156 11.863281 29.578125 18.472656 C 29.621094 25.132812 24.273438 30.585938 17.65625 30.625 C 11.128906 30.664062 5.683594 25.234375 5.691406 18.605469 C 5.699219 11.214844 11.839844 6.332031 17.652344 6.558594 " fill-opacity="1" fill-rule="nonzero"/></g><path fill="#000000" d="M 14.125 16.179688 L 22.648438 16.179688 C 22.964844 14.511719 21.878906 12.882812 20.078125 12.753906 C 18.117188 12.613281 16.136719 12.722656 14.125 12.722656 Z M 12.59375 17.730469 L 12.59375 11.1875 C 14.460938 11.1875 16.292969 11.171875 18.121094 11.191406 C 18.933594 11.199219 19.761719 11.1875 20.558594 11.332031 C 22.945312 11.761719 24.492188 13.828125 24.242188 16.152344 C 23.949219 18.917969 22.339844 20.421875 19.710938 20.40625 C 17.878906 20.398438 16.042969 20.40625 14.148438 20.40625 L 14.148438 24.367188 C 16.542969 24.367188 18.917969 24.488281 21.277344 24.328125 C 23.117188 24.207031 24.152344 22.394531 23.664062 20.578125 C 23.570312 20.226562 23.476562 19.878906 23.363281 19.453125 C 23.816406 19.285156 24.230469 19.132812 24.636719 18.980469 C 26.292969 21.707031 24.808594 25.902344 20.710938 25.921875 C 18.246094 25.933594 15.785156 25.910156 13.320312 25.898438 C 13.101562 25.898438 12.882812 25.875 12.613281 25.859375 L 12.613281 18.855469 C 12.953125 18.855469 13.28125 18.855469 13.609375 18.855469 C 15.675781 18.863281 17.742188 18.875 19.808594 18.882812 C 20.691406 18.886719 21.480469 18.699219 22.160156 17.730469 Z M 12.59375 17.730469 " fill-opacity="1" fill-rule="nonzero"/></svg>